Coordinates
version=1
nRows=8
nColumns=46
inDegrees=yes

Units are S.I. units (second, meters, Newtons, ...)
Angles are in degrees.

endheader
time	pelvis_tilt	pelvis_list	pelvis_rotation	pelvis_tx	pelvis_ty	pelvis_tz	bb_angle	bb_tx	bb_ty	bb_tz	hip_flexion_r	hip_adduction_r	hip_rotation_r	knee_angle_r	knee_angle_r_beta	ankle_angle_r	subtalar_angle_r	mtp_angle_r	crank_angle_r	hip_flexion_l	hip_adduction_l	hip_rotation_l	knee_angle_l	knee_angle_l_beta	ankle_angle_l	subtalar_angle_l	mtp_angle_l	crank_angle_l	lumbar_extension	lumbar_bending	lumbar_rotation	arm_flex_r	arm_add_r	arm_rot_r	elbow_flex_r	pro_sup_r	wrist_flex_r	wrist_dev_r	arm_flex_l	arm_add_l	arm_rot_l	elbow_flex_l	pro_sup_l	wrist_flex_l	wrist_dev_l
      7.50000000	    -38.76979965	     10.98769018	      8.54756699	      0.38644695	      1.08295963	     -0.24534898	      0.00000000	      0.50000000	      0.00000000	      0.25000000	     37.89716543	    -20.42653794	     -6.65130222	     20.75540285	      0.36225012	    -39.67153751	     -3.73894196	      0.00000000	      0.00000000	     89.14083942	     10.14606299	     -4.13574810	    101.91720297	      1.77879076	      6.66185190	     -9.23806111	      0.00000000	      0.00000000	    -55.34025528	     -3.05839715	    -19.39245165	     27.67225334	    -20.85167577	     16.80464792	    112.75425367	     53.60806121	      0.00000000	      0.00000000	     27.98540590	    -39.21144925	     18.45153297	    117.67590314	     55.63347220	      0.00000000	      0.00000000
      7.50500000	    -39.07146829	     10.73754654	      8.46607111	      0.38622330	      1.08483845	     -0.24530363	      0.00000000	      0.50000000	      0.00000000	      0.25000000	     38.91045577	    -19.92832511	     -4.85778430	     23.06965136	      0.40264137	    -39.64832604	     -5.56442770	      0.00000000	      0.00000000	     88.59437920	      9.86342755	     -4.01997886	     99.98624230	      1.74508913	      8.58595792	     -8.98904202	      0.00000000	      0.00000000	    -55.45088325	     -2.93429739	    -19.30675330	     28.15001837	    -20.83740553	     16.88270932	    112.57898544	     53.59753138	      0.00000000	      0.00000000	     27.91195460	    -39.07020894	     18.29842493	    118.02272527	     55.65451736	      0.00000000	      0.00000000
      7.51000000	    -39.23779266	     10.38569125	      8.31109277	      0.38628890	      1.08678244	     -0.24551766	      0.00000000	      0.50000000	      0.00000000	      0.25000000	     39.90515091	    -19.31464340	     -3.12532841	     25.58772510	      0.44659005	    -39.63091599	     -6.83039228	      0.00000000	      0.00000000	     87.78132307	      9.55857569	     -3.87482903	     97.87380990	      1.70822023	     10.35863370	     -9.17557152	      0.00000000	      0.00000000	    -55.67572125	     -2.70967478	    -19.07786123	     28.64400237	    -20.91780567	     16.97048516	    112.45513381	     53.59019499	      0.00000000	      0.00000000	     27.76924928	    -38.84084921	     18.23750179	    118.23599131	     55.67333887	      0.00000000	      0.00000000
      7.51500000	    -39.67545601	      9.98119187	      8.04040467	      0.38592195	      1.08797115	     -0.24532608	      0.00000000	      0.50000000	      0.00000000	      0.25000000	     41.39316561	    -18.46258734	     -1.01451951	     28.30499407	      0.49401534	    -39.62597187	     -7.82866293	      0.00000000	      0.00000000	     87.16240674	      8.91530400	     -3.86645085	     95.55624069	      1.66777102	     11.94363616	     -8.81792338	      0.00000000	      0.00000000	    -55.47445804	     -2.59498120	    -19.62939440	     30.14850229	    -20.73657648	     18.67412384	    111.28924715	     53.75218005	      0.00000000	      0.00000000	     25.82015412	    -38.90986087	     16.09958008	    119.50573901	     55.49202456	      0.00000000	      0.00000000
      7.52000000	    -39.79174959	      9.70387690	      7.60202950	      0.38638436	      1.08970730	     -0.24492654	      0.00000000	      0.50000000	      0.00000000	      0.25000000	     42.55030370	    -17.61811121	      1.02240813	     30.88807816	      0.53909866	    -39.62405689	     -8.39080720	      0.00000000	      0.00000000	     86.00734119	      8.39945049	     -3.75340025	     93.02931688	      1.62366788	     13.25006739	     -8.98765986	      0.00000000	      0.00000000	    -55.70165656	     -2.69593023	    -19.26817079	     30.51364545	    -20.96230551	     18.83432340	    111.28796675	     53.78075931	      0.00000000	      0.00000000	     25.79365390	    -38.50463660	     16.01097697	    119.64766875	     55.49086297	      0.00000000	      0.00000000
      7.52500000	    -39.85181003	      9.23050557	      7.17506243	      0.38670729	      1.09098874	     -0.24482745	      0.00000000	      0.50000000	      0.00000000	      0.25000000	     43.68935198	    -16.65244755	      2.71909274	     33.56658492	      0.58584743	    -39.62055817	     -8.76043188	      0.00000000	      0.00000000	     84.82251041	      7.67680615	     -3.79119596	     90.47910761	      1.57915833	     14.24000006	     -9.50579598	      0.00000000	      0.00000000	    -55.88925869	     -2.62067119	    -18.78053697	     30.94903344	    -21.28399126	     18.95632147	    111.28822837	     53.79734495	      0.00000000	      0.00000000	     25.65568011	    -38.05059546	     15.93779630	    119.76486133	     55.49546377	      0.00000000	      0.00000000
      7.53000000	    -40.01721612	      8.79967080	      6.70432441	      0.38714245	      1.09184071	     -0.24453885	      0.00000000	      0.50000000	      0.00000000	      0.25000000	     44.96691617	    -15.68208866	      4.19372118	     36.17388940	      0.63135347	    -39.62986660	     -9.13316415	      0.00000000	      0.00000000	     83.70345462	      7.05012163	     -3.80309086	     87.82350246	      1.53280928	     14.60801712	    -10.67741764	      0.00000000	      0.00000000	    -55.91246957	     -2.67202357	    -18.20743895	     31.21233579	    -22.09641636	     19.53858075	    111.30238554	     53.88953398	      0.00000000	      0.00000000	     25.39085766	    -37.14477150	     15.53272557	    119.92276820	     55.45373467	      0.00000000	      0.00000000
      7.53500000	    -39.95835710	      8.22371391	      6.32426068	      0.38751904	      1.09274847	     -0.24445405	      0.00000000	      0.50000000	      0.00000000	      0.25000000	     45.95986783	    -14.70043193	      5.19691408	     38.77674866	      0.67678194	    -39.63256641	     -9.37943881	      0.00000000	      0.00000000	     82.37871665	      6.32640712	     -3.95379999	     85.14348071	      1.48603407	     14.91576345	    -11.46254157	      0.00000000	      0.00000000	    -56.09217264	     -2.48635286	    -17.69764209	     31.64421881	    -22.44809067	     19.55278747	    111.26399419	     53.88552039	      0.00000000	      0.00000000	     25.16065108	    -36.68241143	     15.43853462	    120.02229783	     55.45641220	      0.00000000	      0.00000000
